<svg id="Capa_1" data-name="Capa 1" xmlns="http://www.w3.org/2000/svg" viewBox="0 0 262.71 262.71"><defs><style>.cls-1{fill:none;}.cls-2{fill:#000;}.cls-3{fill:none;}</style></defs><rect class="cls-1" width="262.71" height="262.71"/><path class="cls-2" d="M199.29,95.29A15.31,15.31,0,1,1,184,80a15.31,15.31,0,0,1,15.31,15.31Z"/><path class="cls-2" d="M126.33,82.8a18.26,18.26,0,1,0-18.26-18.26A18.27,18.27,0,0,0,126.33,82.8Z"/><rect class="cls-3" x="45.52" y="18.19" width="176.24" height="207.38"/><path class="cls-2" d="M178.63,116.59c-34.58-1.68-53.72-16.47-64.19-27.78-2.85-3.08-7.67-6.46-11.8-5.75C96.58,84.1,92.19,91,89,95.64A69.59,69.59,0,0,0,77.21,134c-.11,8.83,2,17,3.88,25.5,5.25,23.62-10.3,40-31.12,48.28a10.84,10.84,0,0,0,4,20.91,10.61,10.61,0,0,0,4-.77c33.08-13.15,43.05-34.65,45.58-50.38a61.84,61.84,0,0,0,.78-10.05c7.27,2.27,18.22,7.07,24.43,16.41,5.33,8,6.33,18.51,3,31.18a10.84,10.84,0,0,0,7.71,13.25,10.66,10.66,0,0,0,2.78.36,10.83,10.83,0,0,0,10.47-8.07c5-18.93,3-35.32-5.89-48.72C137,157.18,121.1,150,110.61,146.78c-3.72-13.13-1.63-23.62,1.91-31.27-.72,1.55,17.43,11,19.14,11.8,14.83,7,31.13,10.38,47.47,11a8.49,8.49,0,0,0,7.1-3.3C192.57,126.56,186.9,117,178.63,116.59Z"/></svg>