<svg id="Capa_1" data-name="Capa 1" xmlns="http://www.w3.org/2000/svg" viewBox="0 0 262.71 262.71"><defs><style>.cls-1{fill:none;}.cls-2{fill:#000;}.cls-3{fill:none;}</style></defs><rect class="cls-1" width="262.71" height="262.71"/><path class="cls-2" d="M120.68,83a17.2,17.2,0,1,0-17.19-17.2A17.2,17.2,0,0,0,120.68,83Z"/><rect class="cls-3" x="39.16" y="16.52" width="181.23" height="213.26"/><path class="cls-2" d="M176.05,117.7c-35.57-1.72-55.25-16.93-66-28.56C107.1,86,102.15,82.5,97.9,83.23c-6.23,1.07-10.75,8.11-14.05,12.93a71.71,71.71,0,0,0-12.1,39.49c-.11,9.08,2,17.44,4,26.22,5.4,24.3-10.59,41.14-32,49.65A11.15,11.15,0,1,0,52,232.24c34-13.52,44.26-35.64,46.87-51.81a64.27,64.27,0,0,0,.8-10.34c7.47,2.34,18.74,7.27,25.12,16.88,5.48,8.24,6.51,19,3.07,32.07a11.15,11.15,0,0,0,21.56,5.69c5.14-19.46,3.1-36.32-6.06-50.1-10.08-15.18-26.45-22.52-37.25-25.88-3.82-13.5-1.67-24.28,2-32.15-.73,1.59,17.93,11.31,19.68,12.14,15.25,7.21,32,10.66,48.82,11.3a8.72,8.72,0,0,0,7.3-3.39C190.38,128,184.55,118.12,176.05,117.7Z"/><path class="cls-2" d="M227.87,70a26.11,26.11,0,0,0-30.62-16.09c-14,3.56-21.27,16.13-18.55,31.94l3.88,24.86-8.31,19.41a5.82,5.82,0,1,0,10.7,4.58l8.11-19,9.6-6.19c1.3-.85,2.68-1.7,4.09-2.56,2-1.23,4-2.49,6.06-3.84C218.82,99.17,234.72,88.58,227.87,70ZM206.38,93.48h0c-1.86,1.24-3.82,2.44-5.71,3.61-1.49.92-2.94,1.81-4.31,2.7L193,102c-1.21-7.79-2.79-17.92-2.8-18-1.68-9.75,2-16.77,9.94-18.78a13.74,13.74,0,0,1,3.41-.43A14.39,14.39,0,0,1,217,74.06C219.66,81.39,216.9,86.47,206.38,93.48Z"/><circle class="cls-2" cx="192.66" cy="177.67" r="7.6"/></svg>