<svg id="Capa_1" data-name="Capa 1" xmlns="http://www.w3.org/2000/svg" viewBox="0 0 262.71 262.71"><defs><style>.cls-1{fill:none;}.cls-2{fill:#000;}.cls-3{fill:none;}</style></defs><rect class="cls-1" width="262.71" height="262.71"/><path class="cls-2" d="M146.39,76.44a18,18,0,1,0-18-17.95,17.95,17.95,0,0,0,18,17.95Z"/><polygon class="cls-3" points="218.65 19.77 40.73 23.55 40.73 247.7 202.12 247.7 218.65 19.77"/><path class="cls-2" d="M30.8,160a11.28,11.28,0,0,1,12.76-9.58h.1l14.82,1.95c19.36,2.55,37.87-8.47,46.7-25.5,4.38-8.46,6.32-17.86,8.14-27.13.91-4.66,1.78-9.33,2.94-13.94.52-2.07,28.31,5.42,28.31,5.42s0,5.13,0,16.81c0,13.42-10.1,32.68-10.1,32.68l8.49,6.75a117.12,117.12,0,0,1,45.64,72.59l.3,1.58A11.39,11.39,0,0,1,179.86,235a11.07,11.07,0,0,1-2.14.2,11.41,11.41,0,0,1-11.18-9.27l-.3-1.58a94.39,94.39,0,0,0-36.79-58.51l-4.08-3-12.3-8.24-1.25,1.26A66.87,66.87,0,0,1,55.87,174.9l-.55-.08-14.8-2.09A11.27,11.27,0,0,1,30.8,160Z"/><path class="cls-2" d="M180.71,128.56a40.91,40.91,0,0,1-15.89-3.4c-6.41-2.7-13.2-8.28-21.07-14.73C129.87,99,112.59,84.86,96.46,86.55,87.92,87.44,79.9,92.7,72,102.61A10,10,0,1,1,56.39,90.13c11.3-14.09,24.09-22,38-23.41C118.8,64.18,140.53,82,156.4,95c6.39,5.24,12.42,10.19,16.16,11.76,11.52,4.85,17.06-1.52,17.11-1.59A10,10,0,0,1,204.94,118C201,122.7,192.46,128.56,180.71,128.56Z"/></svg>