<svg id="Capa_1" data-name="Capa 1" xmlns="http://www.w3.org/2000/svg" xmlns:xlink="http://www.w3.org/1999/xlink" viewBox="0 0 262.71 262.71"><defs><style>.cls-1{fill:none;}.cls-2{fill:none;}.cls-3{clip-path:url(#clip-path);}.cls-4{fill:#000;}</style><clipPath id="clip-path"><rect class="cls-1" x="49.59" y="46.28" width="176.59" height="189.36"/></clipPath></defs><rect class="cls-2" width="262.71" height="262.71"/><g class="cls-3"><path class="cls-4" d="M218.15,104.17a191.73,191.73,0,0,0-75,38.53l-2.27,1.9-7.22,9.63a189.45,189.45,0,0,0-32.53,68.48l-1,4a10.81,10.81,0,0,1-10.49,8.22,10.65,10.65,0,0,1-2.61-.32,10.82,10.82,0,0,1-7.9-13.11l1-4a211.18,211.18,0,0,1,36.23-76.26l1.56-2.07a15.07,15.07,0,0,1-1.1-1.16L94.42,111.84a129.53,129.53,0,0,0-22.55,39.95l-1.22,3.58a10.81,10.81,0,0,1-10.24,7.33,10.69,10.69,0,0,1-3.49-.58,10.81,10.81,0,0,1-6.75-13.72l1.21-3.58C58.83,122.93,72,102.46,90.47,84l.18-.16a10.67,10.67,0,0,1,1.17-1L105.2,72.59c.17-.14.36-.27.54-.39A35.29,35.29,0,0,1,156.9,85.79a10.81,10.81,0,0,1-4.84,14.51c-5.35,2.68-11.51-.16-14.18-5.51-1.78-3.55-4.11-6.36-7.95-7.38-3.62-1-8.42.54-11.6,2.44l23,26.88a213.45,213.45,0,0,1,71.39-33.52,10.82,10.82,0,0,1,5.39,21ZM73.09,84A17.77,17.77,0,1,0,55.32,66.27,17.77,17.77,0,0,0,73.09,84Zm-1.59-.56"/></g></svg>