<svg id="Capa_1" data-name="Capa 1" xmlns="http://www.w3.org/2000/svg" viewBox="0 0 262.71 262.71"><defs><style>.cls-1{fill:none;}.cls-2{fill:#000;}</style></defs><rect class="cls-1" width="262.71" height="262.71"/><path class="cls-2" d="M131,85.4a16.77,16.77,0,1,0-19.74-13.15A16.77,16.77,0,0,0,131,85.4Z"/><path class="cls-2" d="M120,113.85s12.14-12.08,12.14-12.08q-7.86-7.09-16.38-13.4c-3.33-2.45-7-3-10.53-1.33-.32.15-27.45,11.58-35.8,30.06-4,8.8-4.94,14.22-5,17.92a11.37,11.37,0,0,0-.09,2.68c.13,1.52,2.59,37.69-36.67,61.18a10.9,10.9,0,1,0,11.2,18.71c27.66-16.55,39.27-38.4,44.06-55.37a40.91,40.91,0,0,1,6,9.54,72.6,72.6,0,0,1,5.57,35.05,10.9,10.9,0,1,0,21.72,1.82c1.93-23,.79-40.19-20.78-68.26C97,124.06,120,113.85,120,113.85Z"/><path class="cls-2" d="M137.58,168.15A16.77,16.77,0,1,0,159,178.42a16.76,16.76,0,0,0-21.38-10.27Z"/><path class="cls-2" d="M163.31,147.68l-.05.1,0,0-9.73,7c5.7,4.17,6.73,17.46,12.81,21,3.56,2.1,6.68,1.56,10-.43,18.42-11.07,37.27-29.16,36.25-52.62-.51-11.87-1.59-21.9,3.44-33.2,4.91-11,13.34-20.18,22.93-27.35A10.91,10.91,0,1,0,225.86,44.7C200.05,64,194.44,81.55,191.42,98.92a41.09,41.09,0,0,1-7-8.86,72.5,72.5,0,0,1-9.15-34.3,10.9,10.9,0,1,0-21.79.43c.45,23.09,3.35,40.06,27.69,65.75C182.48,132.77,168.39,146.82,163.31,147.68Z"/><path class="cls-2" d="M170.65,177a10,10,0,0,1-9.07-5.8c-22.72-49.09-55.77-66-56.11-66.18a10,10,0,0,1,8.8-18c1.6.78,39.55,19.78,65.45,75.74A10,10,0,0,1,170.65,177Z"/></svg>