<svg id="Capa_1" data-name="Capa 1" xmlns="http://www.w3.org/2000/svg" viewBox="0 0 262.71 262.71"><defs><style>.cls-1{fill:none;}.cls-2{fill:#000;}</style></defs><rect class="cls-1" width="262.71" height="262.71"/><path class="cls-2" d="M167.86,95.67a17.58,17.58,0,1,0-20.73,13.74A17.57,17.57,0,0,0,167.86,95.67Z"/><path class="cls-2" d="M225.29,144.16c-.13-.12-12.95-11.43-39-11.43-11.45,0-20.55,4.77-31.1,10.3-13.83,7.25-29.51,15.46-54.41,15.46-44.38,0-73.77-26.1-75-27.21a6,6,0,0,1-.53-8.25,5.57,5.57,0,0,1,8-.56c.27.24,27.56,24.31,67.51,24.31A85,85,0,0,0,135,139.9c16.6-7,32.83-18.88,51.26-18.88,30.29,0,45.86,13.75,46.5,14.33a6,6,0,0,1,.53,8.27A5.56,5.56,0,0,1,225.29,144.16Z"/><path class="cls-2" d="M33.25,159.92c.27.24,27.55,24.31,67.51,24.31,22.18,0,36-7.22,49.26-14.19,11.36-5.95,22.08-11.57,36.25-11.57,30.29,0,45.86,13.74,46.5,14.33a6,6,0,0,1,.53,8.26,5.57,5.57,0,0,1-8,.54c-.12-.11-12.94-11.42-39-11.42-11.45,0-20.56,4.77-31.1,10.29-13.83,7.25-29.51,15.46-54.41,15.46-44.38,0-73.77-26.09-75-27.21a6,6,0,0,1-.52-8.24A5.56,5.56,0,0,1,33.25,159.92Z"/><path class="cls-2" d="M231.68,97.06a9.55,9.55,0,0,0-13.14-3,202.49,202.49,0,0,1-38.42,17.81c-17.44,5.78-40.72,9.89-52.57-3.37C110.65,89.56,93.8,80.23,77.47,80.71A41.18,41.18,0,0,0,51.68,91.15l-.27.23A9.54,9.54,0,0,0,63.66,106l.35-.29a22.31,22.31,0,0,1,14-5.94h.62c10.17,0,22.14,7.39,34.67,21.41l.34.36a49.07,49.07,0,0,1-9.44,10.58c-9,7.38-26.5,13.5-27.54,11.78,7.59,12.53,29.83,11,29.83,11s14.54-1.44,21.46-4c10.69-4,12.58-5.67,21.46-14.54.6,0,1.19,0,1.8,0,9.61,0,21.12-1.84,34.88-6.39a221.26,221.26,0,0,0,42.51-19.73A9.55,9.55,0,0,0,231.68,97.06Z"/></svg>