<svg id="Capa_1" data-name="Capa 1" xmlns="http://www.w3.org/2000/svg" viewBox="0 0 262.71 262.71"><defs><style>.cls-1{fill:none;}.cls-2{fill:#000;}.cls-3{fill:none;}</style></defs><rect class="cls-1" width="262.71" height="262.71"/><path class="cls-2" d="M101.6,84.81A17.48,17.48,0,1,0,84.13,67.34,17.47,17.47,0,0,0,101.6,84.81Z"/><rect class="cls-3" x="39.51" y="28.68" width="168.71" height="198.53"/><path d="M104.06,122.61l-.41-.76C103.57,122,103.73,122.28,104.06,122.61Z"/><path class="cls-2" d="M101.82,151.77c-3.56-12.56-1.56-22.6,1.83-29.92l6.47-20.95c-1.71-1.58-3.25-3.13-4.63-4.62-2.73-3-7.34-6.18-11.3-5.5-5.8,1-10,7.55-13.08,12a66.79,66.79,0,0,0-11.27,36.76c-.1,8.45,1.91,16.24,3.72,24.41,5,22.62-9.86,38.3-29.79,46.22a10.38,10.38,0,0,0,7.67,19.29c31.67-12.59,41.21-33.18,43.63-48.24a58.65,58.65,0,0,0,.75-9.62c7,2.18,17.45,6.77,23.39,15.71,5.1,7.68,6.06,17.72,2.86,29.86a10.37,10.37,0,0,0,7.38,12.68,10.61,10.61,0,0,0,2.66.34,10.38,10.38,0,0,0,10-7.73c4.78-18.11,2.88-33.8-5.65-46.63C127.1,161.73,111.87,154.9,101.82,151.77Z"/><path class="cls-2" d="M126.65,128.53c-19.33,0-33.75-18-35.41-20.21a9.18,9.18,0,0,1,14.56-11.2c3.08,4,13.07,14,22.27,13,8.52-1,15.18-11.71,19.26-20.55A9.18,9.18,0,1,1,164,97.25c-8.84,19.11-20.26,29.58-33.95,31.09A30.32,30.32,0,0,1,126.65,128.53Z"/><path class="cls-2" d="M163.58,119.5a57.26,57.26,0,0,1-19.48-3.6,9.18,9.18,0,0,1,6.67-17.1c3.85,1.47,15.37,4.35,22.44.06,4.07-2.47,6.58-7.52,7.44-15A9.18,9.18,0,1,1,198.89,86C197,102.73,189,110.8,182.63,114.62A36.64,36.64,0,0,1,163.58,119.5Z"/><path class="cls-2" d="M234.4,66.43a4.51,4.51,0,0,0-5.33-3.51L95.14,90.44a4.52,4.52,0,0,0,.91,8.94l.26,0a4.71,4.71,0,0,0,0,1.54,4.52,4.52,0,0,0,4.41,3.55,3.93,3.93,0,0,0,1-.11l85.62-18.69a4.51,4.51,0,0,0,3.45-5.37,1.84,1.84,0,0,0-.09-.25l40.18-8.26A4.51,4.51,0,0,0,234.4,66.43Z"/></svg>