<svg id="Capa_1" data-name="Capa 1" xmlns="http://www.w3.org/2000/svg" viewBox="0 0 262.71 262.71"><defs><style>.cls-1{fill:none;}.cls-2{fill:#000;}.cls-3{fill:none;}</style></defs><rect class="cls-1" width="262.71" height="262.71"/><path class="cls-2" d="M117.78,79.65A18.89,18.89,0,1,0,98.89,60.76a18.88,18.88,0,0,0,18.89,18.89Z"/><rect class="cls-3" x="35.42" y="11.09" width="182.32" height="214.54"/><path class="cls-2" d="M173.13,112.88c-35.78-1.73-55.57-17-66.41-28.73-3-3.19-7.93-6.69-12.21-6-6.27,1.08-10.81,8.16-14.13,13A72.18,72.18,0,0,0,68.2,130.94c-.11,9.13,2.06,17.54,4,26.37C77.65,181.75,61.57,198.7,40,207.26a11.21,11.21,0,1,0,8.29,20.84C82.54,214.5,92.85,192.25,95.47,176a63.91,63.91,0,0,0,.81-10.4c7.51,2.35,18.85,7.32,25.27,17,5.51,8.29,6.55,19.15,3.09,32.26a11.22,11.22,0,0,0,8,13.71,11.36,11.36,0,0,0,2.87.37,11.23,11.23,0,0,0,10.84-8.36c5.16-19.57,3.11-36.53-6.1-50.39-10.15-15.28-26.61-22.66-37.47-26-3.84-13.58-1.68-24.42,2-32.34-.74,1.6,18,11.38,19.8,12.21,15.34,7.25,32.21,10.73,49.11,11.37a8.74,8.74,0,0,0,7.34-3.41C187.55,123.2,181.69,113.3,173.13,112.88Z"/><path class="cls-2" d="M199.33,108.17c8.25-4.36,14.67-14.63,10.83-24a18.27,18.27,0,0,0-21.87-10.48c-8.1,2.38-12.58,9.77-12.32,18a26.17,26.17,0,0,0,3.33,11.64c.52,1,3.61,7.61,5.2,10.24A113.88,113.88,0,0,0,199.33,108.17Z"/><path class="cls-2" d="M179.24,131.7a3.52,3.52,0,0,1-3.27-4.77L182.86,109a3.51,3.51,0,1,1,6.55,2.52l-6.89,17.91A3.53,3.53,0,0,1,179.24,131.7Z"/><circle class="cls-2" cx="189.85" cy="173.2" r="5.28"/></svg>