<svg id="Capa_1" data-name="Capa 1" xmlns="http://www.w3.org/2000/svg" xmlns:xlink="http://www.w3.org/1999/xlink" viewBox="0 0 262.71 262.71"><defs><style>.cls-1{fill:none;}.cls-2{fill:none;}.cls-3{clip-path:url(#clip-path);}.cls-4{fill:#000;}</style><clipPath id="clip-path"><polygon class="cls-1" points="26.78 40.04 231.42 21.43 240.3 252.25 19.38 258.48 26.78 40.04"/></clipPath></defs><rect class="cls-2" width="262.71" height="262.71"/><g class="cls-3"><path class="cls-4" d="M131.64,107.37a126.77,126.77,0,0,1,3.73,32.95C135,160.72,131,181.4,122.58,200c-4.24,9.39-10.89,19.41-16.62,28-3.87,5.8-9.69,12.23-16.36,11.74a10.77,10.77,0,0,1-5.77-2.1c-4.61-3.47-5.28-10.59-1.89-15.26l.73-1C93.07,207,109.3,184.49,111,167.11c-8,8.12-24.43,13.82-38.19,12.9-14.24-.95-23.06-5.34-30.23-9-5.15-2.61-7.87-8.33-5.66-13.66a10.46,10.46,0,0,1,13.66-5.66c9.63,4,23.52,9.79,38.67,4.57,5.74-2,11-8.7,11.58-14.74,1.89-19.61-4.86-43-4.86-43C103.69,100.77,115.86,102.4,131.64,107.37ZM121.22,93.08a16.39,16.39,0,1,0-18.93-13.39,16.41,16.41,0,0,0,18.93,13.39Zm0-20.85"/></g><path class="cls-4" d="M135,123.61c-22.53,0-43.22-6.5-56.56-18.88-22.91-21.23-25.58-46.92-25.68-48a10.45,10.45,0,0,1,20.8-2c0,.43,2.36,19.2,19.09,34.71,13.54,12.55,44.51,19,77.53,7.06a10.45,10.45,0,1,1,7.11,19.66A125.26,125.26,0,0,1,135,123.61Z"/><circle class="cls-4" cx="74.92" cy="41.63" r="16.29"/><path class="cls-4" d="M226.91,52.26a1.48,1.48,0,0,0,0-.21c0-.11,0-.22,0-.33v0a4.36,4.36,0,0,0-3.29-3.57h-.06l-.31-.06-.15,0-.23,0h-.3l-58.19-.07h0a4.39,4.39,0,0,0-4.4,4.38,4.24,4.24,0,0,0,.61,2.21l9.92,28a4.4,4.4,0,0,0,8.3-2.94L177.5,76.1h11.28v5.29a4.41,4.41,0,0,0,8.81,0V76.1h11.95l-1.23,3.54a4.39,4.39,0,0,0,2.7,5.61,4.34,4.34,0,0,0,1.45.25,4.41,4.41,0,0,0,4.16-3l10-28.69a4.14,4.14,0,0,0,.22-1v0a2.23,2.23,0,0,0,0-.37s0,0,0-.06S226.91,52.3,226.91,52.26Zm-38.13,15H174.39l-3.85-10.6h18.24Zm23.85,0h-15V56.72h18.64Z"/></svg>