<svg id="Capa_1" data-name="Capa 1" xmlns="http://www.w3.org/2000/svg" viewBox="0 0 262.71 262.71"><defs><style>.cls-1{fill:none;}.cls-2{fill:#000;}.cls-3{fill:none;}</style></defs><rect class="cls-1" width="262.71" height="262.71"/><path class="cls-2" d="M121.52,96.05A17.22,17.22,0,1,0,104.3,78.83a17.22,17.22,0,0,0,17.22,17.22Z"/><polygon class="cls-3" points="195.77 33.17 29.54 33.17 23.86 259.63 216.67 251.76 195.77 33.17"/><path class="cls-2" d="M67.19,121.64c33.4,2.16,43.16-3.06,63.57-21.87,2.92-2.68,7.24-6.09,11.14-5.42,5.71,1,9.85,7.44,12.88,11.87a65.65,65.65,0,0,1,11.1,36.22c.1,8.32-1.87,16-3.66,24.05-4.95,22.28,9.72,37.73,29.35,45.54A10.22,10.22,0,1,1,184,231c-31.2-12.4-41-32.35-43.41-47.18-.53-3.33-.76-4-1.11-7.61-7.91-2.17-21.47,2.32-27.32,11.13-5,7.56-3.08,19.59.08,31.55A10.22,10.22,0,0,1,105,231.41a9.89,9.89,0,0,1-2.62.35c-4.53,0-8.22-3.18-9.88-7.62-5.5-14.75-5.85-38,2.78-49.72A46.91,46.91,0,0,1,134.18,155c3.51-12.38,1.73-22.82-1.6-30-4.44,4.21-13.78,9.1-15.72,9.92-16.45,7-30.18,8.39-46.31,7.76-2.6-.1-8.4-1.06-10.52-3.63C53.69,131.33,59.4,121.13,67.19,121.64Z"/><circle class="cls-2" cx="190.48" cy="172.7" r="4.81"/><path class="cls-2" d="M54.57,149.46,99.69,32.66a6.22,6.22,0,0,1,11.61,4.49,2.36,2.36,0,0,1-.12.28L60.35,151.86a3.13,3.13,0,0,1-5.78-2.4Z"/></svg>