<svg id="Capa_1" data-name="Capa 1" xmlns="http://www.w3.org/2000/svg" xmlns:xlink="http://www.w3.org/1999/xlink" viewBox="0 0 262.71 262.71"><defs><style>.cls-1{fill:none;}.cls-2{fill:none;}.cls-3{clip-path:url(#clip-path);}.cls-4{fill:#000;}</style><clipPath id="clip-path"><polygon class="cls-1" points="57.32 46.94 247.83 29.61 256.09 244.49 50.43 250.29 57.32 46.94"/></clipPath></defs><rect class="cls-2" width="262.71" height="262.71"/><g class="cls-3"><path class="cls-4" d="M154.93,109.62a117.64,117.64,0,0,1,3.48,30.67c-.33,19-4.11,38.25-11.91,55.52-3.95,8.74-10.14,18.07-15.47,26-3.61,5.4-9,11.38-15.23,10.93a10.09,10.09,0,0,1-5.37-1.95c-4.29-3.23-4.92-9.87-1.76-14.21l.67-.93c9.69-13.31,24.8-34.28,26.41-50.45-7.45,7.55-22.74,12.86-35.56,12-13.25-.88-21.46-5-28.13-8.34-4.8-2.43-7.33-7.75-5.27-12.72a9.73,9.73,0,0,1,12.71-5.26c9,3.71,21.9,9.11,36,4.25,5.34-1.84,10.24-8.1,10.78-13.73,1.76-18.25-4.52-40-4.52-40C128.91,103.48,140.24,105,154.93,109.62Zm-9.7-13.3a15.26,15.26,0,1,0-17.62-12.47,15.27,15.27,0,0,0,17.62,12.47Zm0-19.41"/></g><path class="cls-4" d="M158.06,124.74c-21,0-40.23-6.06-52.65-17.57C84.08,87.4,81.6,63.48,81.5,62.47a9.73,9.73,0,0,1,19.37-1.89,57.28,57.28,0,0,0,17.77,32.31c12.6,11.69,41.44,17.69,72.18,6.57a9.73,9.73,0,1,1,6.62,18.3A116.52,116.52,0,0,1,158.06,124.74Z"/><circle class="cls-4" cx="102.13" cy="48.42" r="15.16"/></svg>