<svg id="Capa_1" data-name="Capa 1" xmlns="http://www.w3.org/2000/svg" viewBox="0 0 262.71 262.71"><defs><style>.cls-1{fill:none;}.cls-2{fill:#000;}.cls-3{fill:none;}</style></defs><rect class="cls-1" width="262.71" height="262.71"/><path class="cls-2" d="M151.66,218.22a14.83,14.83,0,1,1-14.83-14.83,14.83,14.83,0,0,1,14.83,14.83Z"/><path class="cls-2" d="M108,76.15A17.59,17.59,0,1,0,90.45,58.56,17.59,17.59,0,0,0,108,76.15Z"/><polygon class="cls-3" points="36.46 20.14 212.33 23.87 212.33 245.44 52.8 245.44 36.46 20.14"/><path class="cls-2" d="M222.14,158.74a11.15,11.15,0,0,0-12.61-9.46h-.1l-14.65,1.93c-19.13,2.52-37.44-8.38-46.16-25.22-4.33-8.36-6.25-17.64-8-26.81-.9-4.6-1.77-9.22-2.91-13.77-.52-2.06-28,5.35-28,5.35s0,5.07,0,16.62c0,13.26,10,32.3,10,32.3l-8.39,6.67a115.78,115.78,0,0,0-45.12,71.76l-.3,1.56a11.27,11.27,0,0,0,9,13.17,11.79,11.79,0,0,0,2.12.2,11.28,11.28,0,0,0,11-9.16l.3-1.57a93.27,93.27,0,0,1,36.36-57.83l4-3,12.16-8.15,1.23,1.24a66.09,66.09,0,0,0,55.31,18.86l.55-.07,14.63-2.07A11.14,11.14,0,0,0,222.14,158.74Z"/><path class="cls-2" d="M74,127.67A33.31,33.31,0,0,1,61.8,125.4a9.78,9.78,0,0,1-3.07-16.26l.38-.35a9.93,9.93,0,0,1,10-2A17.7,17.7,0,0,0,82,106.13c3.69-1.55,9.66-6.44,16-11.62,15.68-12.87,37.16-30.49,61.3-28,13.65,1.42,26.2,9.11,37.32,22.84a10.09,10.09,0,0,1-.85,13.79A9.86,9.86,0,0,1,181.47,102c-7.86-9.8-15.79-15-24.23-15.87-15.93-1.65-33,12.35-46.75,23.6-7.77,6.38-14.49,11.89-20.82,14.55A40.34,40.34,0,0,1,74,127.67Z"/></svg>